# xmcd
#
# Track frame offsets:
#	150
#	14139
#	34775
#	48242
#	64117
#	87056
#	107574
#	132931
#	157097
#	181551
#
# Disc length: 2737 seconds
#
# Revision: 1
# Processed by: cddbd v1.5.1PL2 Copyright (c) Steve Scherf et al.
# Submitted via: audiograbber 1.83.01
#
DISCID=7a0aaf0a
DTITLE=Dawson Smith - Valley Boy
DYEAR=2002
DGENRE=Country
TTITLE0=Chartlist March
TTITLE1=Never Will
TTITLE2=Moonshine
TTITLE3=Highway Road
TTITLE4=Rebecca's Daughters
TTITLE5=Angel
TTITLE6=Black Irishman
TTITLE7=Down This Road
TTITLE8=Dirty Water
TTITLE9=Simple Again
EXTD=
EXTT0=
EXTT1=
EXTT2=
EXTT3=
EXTT4=
EXTT5=
EXTT6=
EXTT7=
EXTT8=
EXTT9=
PLAYORDER=
